<svg xmlns="http://www.w3.org/2000/svg" viewBox="0 0 1745 903" preserveAspectRatio="xMidYMid" width="1745" height="903" style="shape-rendering: auto; display: block; background: rgb(1, 5, 14);"><g data-idx="1"><defs data-idx="2">
<linearGradient y2="1" y1="0" x2="0" x1="0" id="lg-0.6590519274487807" data-idx="3">
  <stop offset="0.3" stop-color="#01050e" data-idx="4"></stop>
  <stop offset="0.6499999999999999" stop-color="#01050e" data-idx="5"></stop>
  <stop offset="1" stop-color="#01050e" data-idx="6"></stop>
</linearGradient>
<linearGradient y2="1" y1="0" x2="0" x1="0" id="fg-lg-0.6590519274487807" data-idx="7">
  <stop offset="0.3" stop-opacity="1" stop-color="#01050e" data-idx="8"></stop>
  <stop offset="0.6499999999999999" stop-opacity="0.66" stop-color="#01050e" data-idx="9"></stop>
  <stop offset="1" stop-opacity="0" stop-color="#01050e" data-idx="10"></stop>
</linearGradient>
<style type="text/css" data-idx="11">
  path { fill: none; stroke: #2563eb; stroke-width: 3px }
</style>
</defs>
<rect fill="url(#lg-0.6590519274487807)" height="903" width="1745" y="0" x="0" data-idx="12"></rect><path d="M0 270.9 L-12215 903" data-idx="13" style="fill: none; stroke: rgb(37, 99, 235);"></path><path d="M13.423076923076923 270.9 L-12013.653846153846 903" data-idx="14" style="fill: none; stroke: rgb(37, 99, 235);"></path><path d="M26.846153846153847 270.9 L-11812.307692307691 903" data-idx="15" style="fill: none; stroke: rgb(37, 99, 235);"></path><path d="M40.26923076923077 270.9 L-11610.961538461539 903" data-idx="16" style="fill: none; stroke: rgb(37, 99, 235);"></path><path d="M53.69230769230769 270.9 L-11409.615384615385 903" data-idx="17" style="fill: none; stroke: rgb(37, 99, 235);"></path><path d="M67.11538461538461 270.9 L-11208.26923076923 903" data-idx="18" style="fill: none; stroke: rgb(37, 99, 235);"></path><path d="M80.53846153846153 270.9 L-11006.923076923076 903" data-idx="19" style="fill: none; stroke: rgb(37, 99, 235);"></path><path d="M93.96153846153847 270.9 L-10805.576923076924 903" data-idx="20" style="fill: none; stroke: rgb(37, 99, 235);"></path><path d="M107.38461538461539 270.9 L-10604.23076923077 903" data-idx="21" style="fill: none; stroke: rgb(37, 99, 235);"></path><path d="M120.8076923076923 270.9 L-10402.884615384615 903" data-idx="22" style="fill: none; stroke: rgb(37, 99, 235);"></path><path d="M134.23076923076923 270.9 L-10201.538461538461 903" data-idx="23" style="fill: none; stroke: rgb(37, 99, 235);"></path><path d="M147.65384615384616 270.9 L-10000.192307692309 903" data-idx="24" style="fill: none; stroke: rgb(37, 99, 235);"></path><path d="M161.07692307692307 270.9 L-9798.846153846154 903" data-idx="25" style="fill: none; stroke: rgb(37, 99, 235);"></path><path d="M174.5 270.9 L-9597.5 903" data-idx="26" style="fill: none; stroke: rgb(37, 99, 235);"></path><path d="M187.92307692307693 270.9 L-9396.153846153846 903" data-idx="27" style="fill: none; stroke: rgb(37, 99, 235);"></path><path d="M201.34615384615384 270.9 L-9194.807692307691 903" data-idx="28" style="fill: none; stroke: rgb(37, 99, 235);"></path><path d="M214.76923076923077 270.9 L-8993.461538461539 903" data-idx="29" style="fill: none; stroke: rgb(37, 99, 235);"></path><path d="M228.19230769230768 270.9 L-8792.115384615385 903" data-idx="30" style="fill: none; stroke: rgb(37, 99, 235);"></path><path d="M241.6153846153846 270.9 L-8590.76923076923 903" data-idx="31" style="fill: none; stroke: rgb(37, 99, 235);"></path><path d="M255.03846153846155 270.9 L-8389.423076923078 903" data-idx="32" style="fill: none; stroke: rgb(37, 99, 235);"></path><path d="M268.46153846153845 270.9 L-8188.076923076923 903" data-idx="33" style="fill: none; stroke: rgb(37, 99, 235);"></path><path d="M281.88461538461536 270.9 L-7986.7307692307695 903" data-idx="34" style="fill: none; stroke: rgb(37, 99, 235);"></path><path d="M295.3076923076923 270.9 L-7785.384615384615 903" data-idx="35" style="fill: none; stroke: rgb(37, 99, 235);"></path><path d="M308.7307692307692 270.9 L-7584.038461538462 903" data-idx="36" style="fill: none; stroke: rgb(37, 99, 235);"></path><path d="M322.15384615384613 270.9 L-7382.692307692308 903" data-idx="37" style="fill: none; stroke: rgb(37, 99, 235);"></path><path d="M335.5769230769231 270.9 L-7181.346153846154 903" data-idx="38" style="fill: none; stroke: rgb(37, 99, 235);"></path><path d="M349 270.9 L-6980 903" data-idx="39" style="fill: none; stroke: rgb(37, 99, 235);"></path><path d="M362.4230769230769 270.9 L-6778.653846153846 903" data-idx="40" style="fill: none; stroke: rgb(37, 99, 235);"></path><path d="M375.84615384615387 270.9 L-6577.307692307692 903" data-idx="41" style="fill: none; stroke: rgb(37, 99, 235);"></path><path d="M389.2692307692308 270.9 L-6375.961538461538 903" data-idx="42" style="fill: none; stroke: rgb(37, 99, 235);"></path><path d="M402.6923076923077 270.9 L-6174.615384615385 903" data-idx="43" style="fill: none; stroke: rgb(37, 99, 235);"></path><path d="M416.11538461538464 270.9 L-5973.2692307692305 903" data-idx="44" style="fill: none; stroke: rgb(37, 99, 235);"></path><path d="M429.53846153846155 270.9 L-5771.923076923077 903" data-idx="45" style="fill: none; stroke: rgb(37, 99, 235);"></path><path d="M442.96153846153845 270.9 L-5570.576923076923 903" data-idx="46" style="fill: none; stroke: rgb(37, 99, 235);"></path><path d="M456.38461538461536 270.9 L-5369.2307692307695 903" data-idx="47" style="fill: none; stroke: rgb(37, 99, 235);"></path><path d="M469.8076923076923 270.9 L-5167.884615384615 903" data-idx="48" style="fill: none; stroke: rgb(37, 99, 235);"></path><path d="M483.2307692307692 270.9 L-4966.538461538462 903" data-idx="49" style="fill: none; stroke: rgb(37, 99, 235);"></path><path d="M496.65384615384613 270.9 L-4765.192307692308 903" data-idx="50" style="fill: none; stroke: rgb(37, 99, 235);"></path><path d="M510.0769230769231 270.9 L-4563.846153846154 903" data-idx="51" style="fill: none; stroke: rgb(37, 99, 235);"></path><path d="M523.5 270.9 L-4362.5 903" data-idx="52" style="fill: none; stroke: rgb(37, 99, 235);"></path><path d="M536.9230769230769 270.9 L-4161.153846153846 903" data-idx="53" style="fill: none; stroke: rgb(37, 99, 235);"></path><path d="M550.3461538461538 270.9 L-3959.8076923076915 903" data-idx="54" style="fill: none; stroke: rgb(37, 99, 235);"></path><path d="M563.7692307692307 270.9 L-3758.461538461539 903" data-idx="55" style="fill: none; stroke: rgb(37, 99, 235);"></path><path d="M577.1923076923077 270.9 L-3557.1153846153848 903" data-idx="56" style="fill: none; stroke: rgb(37, 99, 235);"></path><path d="M590.6153846153846 270.9 L-3355.7692307692305 903" data-idx="57" style="fill: none; stroke: rgb(37, 99, 235);"></path><path d="M604.0384615384615 270.9 L-3154.423076923076 903" data-idx="58" style="fill: none; stroke: rgb(37, 99, 235);"></path><path d="M617.4615384615385 270.9 L-2953.076923076924 903" data-idx="59" style="fill: none; stroke: rgb(37, 99, 235);"></path><path d="M630.8846153846154 270.9 L-2751.7307692307695 903" data-idx="60" style="fill: none; stroke: rgb(37, 99, 235);"></path><path d="M644.3076923076923 270.9 L-2550.3846153846152 903" data-idx="61" style="fill: none; stroke: rgb(37, 99, 235);"></path><path d="M657.7307692307693 270.9 L-2349.038461538461 903" data-idx="62" style="fill: none; stroke: rgb(37, 99, 235);"></path><path d="M671.1538461538462 270.9 L-2147.6923076923085 903" data-idx="63" style="fill: none; stroke: rgb(37, 99, 235);"></path><path d="M684.5769230769231 270.9 L-1946.3461538461543 903" data-idx="64" style="fill: none; stroke: rgb(37, 99, 235);"></path><path d="M698 270.9 L-1745 903" data-idx="65" style="fill: none; stroke: rgb(37, 99, 235);"></path><path d="M711.4230769230769 270.9 L-1543.6538461538457 903" data-idx="66" style="fill: none; stroke: rgb(37, 99, 235);"></path><path d="M724.8461538461538 270.9 L-1342.3076923076915 903" data-idx="67" style="fill: none; stroke: rgb(37, 99, 235);"></path><path d="M738.2692307692307 270.9 L-1140.961538461539 903" data-idx="68" style="fill: none; stroke: rgb(37, 99, 235);"></path><path d="M751.6923076923077 270.9 L-939.6153846153848 903" data-idx="69" style="fill: none; stroke: rgb(37, 99, 235);"></path><path d="M765.1153846153846 270.9 L-738.2692307692305 903" data-idx="70" style="fill: none; stroke: rgb(37, 99, 235);"></path><path d="M778.5384615384615 270.9 L-536.9230769230762 903" data-idx="71" style="fill: none; stroke: rgb(37, 99, 235);"></path><path d="M791.9615384615385 270.9 L-335.5769230769238 903" data-idx="72" style="fill: none; stroke: rgb(37, 99, 235);"></path><path d="M805.3846153846154 270.9 L-134.2307692307695 903" data-idx="73" style="fill: none; stroke: rgb(37, 99, 235);"></path><path d="M818.8076923076923 270.9 L67.11538461538476 903" data-idx="74" style="fill: none; stroke: rgb(37, 99, 235);"></path><path d="M832.2307692307693 270.9 L268.461538461539 903" data-idx="75" style="fill: none; stroke: rgb(37, 99, 235);"></path><path d="M845.6538461538462 270.9 L469.80769230769147 903" data-idx="76" style="fill: none; stroke: rgb(37, 99, 235);"></path><path d="M859.0769230769231 270.9 L671.1538461538457 903" data-idx="77" style="fill: none; stroke: rgb(37, 99, 235);"></path><path d="M872.5 270.9 L872.5 903" data-idx="78" style="fill: none; stroke: rgb(37, 99, 235);"></path><path d="M885.9230769230769 270.9 L1073.8461538461543 903" data-idx="79" style="fill: none; stroke: rgb(37, 99, 235);"></path><path d="M899.3461538461538 270.9 L1275.1923076923085 903" data-idx="80" style="fill: none; stroke: rgb(37, 99, 235);"></path><path d="M912.7692307692307 270.9 L1476.538461538461 903" data-idx="81" style="fill: none; stroke: rgb(37, 99, 235);"></path><path d="M926.1923076923077 270.9 L1677.8846153846152 903" data-idx="82" style="fill: none; stroke: rgb(37, 99, 235);"></path><path d="M939.6153846153846 270.9 L1879.2307692307695 903" data-idx="83" style="fill: none; stroke: rgb(37, 99, 235);"></path><path d="M953.0384615384615 270.9 L2080.576923076924 903" data-idx="84" style="fill: none; stroke: rgb(37, 99, 235);"></path><path d="M966.4615384615385 270.9 L2281.923076923076 903" data-idx="85" style="fill: none; stroke: rgb(37, 99, 235);"></path><path d="M979.8846153846154 270.9 L2483.2692307692305 903" data-idx="86" style="fill: none; stroke: rgb(37, 99, 235);"></path><path d="M993.3076923076923 270.9 L2684.6153846153848 903" data-idx="87" style="fill: none; stroke: rgb(37, 99, 235);"></path><path d="M1006.7307692307693 270.9 L2885.961538461539 903" data-idx="88" style="fill: none; stroke: rgb(37, 99, 235);"></path><path d="M1020.1538461538462 270.9 L3087.3076923076915 903" data-idx="89" style="fill: none; stroke: rgb(37, 99, 235);"></path><path d="M1033.576923076923 270.9 L3288.6538461538457 903" data-idx="90" style="fill: none; stroke: rgb(37, 99, 235);"></path><path d="M1047 270.9 L3490 903" data-idx="91" style="fill: none; stroke: rgb(37, 99, 235);"></path><path d="M1060.423076923077 270.9 L3691.3461538461543 903" data-idx="92" style="fill: none; stroke: rgb(37, 99, 235);"></path><path d="M1073.8461538461538 270.9 L3892.6923076923085 903" data-idx="93" style="fill: none; stroke: rgb(37, 99, 235);"></path><path d="M1087.2692307692307 270.9 L4094.038461538461 903" data-idx="94" style="fill: none; stroke: rgb(37, 99, 235);"></path><path d="M1100.6923076923076 270.9 L4295.384615384617 903" data-idx="95" style="fill: none; stroke: rgb(37, 99, 235);"></path><path d="M1114.1153846153845 270.9 L4496.7307692307695 903" data-idx="96" style="fill: none; stroke: rgb(37, 99, 235);"></path><path d="M1127.5384615384614 270.9 L4698.076923076922 903" data-idx="97" style="fill: none; stroke: rgb(37, 99, 235);"></path><path d="M1140.9615384615386 270.9 L4899.423076923078 903" data-idx="98" style="fill: none; stroke: rgb(37, 99, 235);"></path><path d="M1154.3846153846155 270.9 L5100.7692307692305 903" data-idx="99" style="fill: none; stroke: rgb(37, 99, 235);"></path><path d="M1167.8076923076924 270.9 L5302.115384615383 903" data-idx="100" style="fill: none; stroke: rgb(37, 99, 235);"></path><path d="M1181.2307692307693 270.9 L5503.461538461539 903" data-idx="101" style="fill: none; stroke: rgb(37, 99, 235);"></path><path d="M1194.6538461538462 270.9 L5704.8076923076915 903" data-idx="102" style="fill: none; stroke: rgb(37, 99, 235);"></path><path d="M1208.076923076923 270.9 L5906.153846153848 903" data-idx="103" style="fill: none; stroke: rgb(37, 99, 235);"></path><path d="M1221.5 270.9 L6107.5 903" data-idx="104" style="fill: none; stroke: rgb(37, 99, 235);"></path><path d="M1234.923076923077 270.9 L6308.846153846152 903" data-idx="105" style="fill: none; stroke: rgb(37, 99, 235);"></path><path d="M1248.3461538461538 270.9 L6510.1923076923085 903" data-idx="106" style="fill: none; stroke: rgb(37, 99, 235);"></path><path d="M1261.7692307692307 270.9 L6711.538461538461 903" data-idx="107" style="fill: none; stroke: rgb(37, 99, 235);"></path><path d="M1275.1923076923076 270.9 L6912.884615384617 903" data-idx="108" style="fill: none; stroke: rgb(37, 99, 235);"></path><path d="M1288.6153846153845 270.9 L7114.2307692307695 903" data-idx="109" style="fill: none; stroke: rgb(37, 99, 235);"></path><path d="M1302.0384615384614 270.9 L7315.576923076922 903" data-idx="110" style="fill: none; stroke: rgb(37, 99, 235);"></path><path d="M1315.4615384615386 270.9 L7516.923076923078 903" data-idx="111" style="fill: none; stroke: rgb(37, 99, 235);"></path><path d="M1328.8846153846155 270.9 L7718.2692307692305 903" data-idx="112" style="fill: none; stroke: rgb(37, 99, 235);"></path><path d="M1342.3076923076924 270.9 L7919.615384615383 903" data-idx="113" style="fill: none; stroke: rgb(37, 99, 235);"></path><path d="M1355.7307692307693 270.9 L8120.961538461539 903" data-idx="114" style="fill: none; stroke: rgb(37, 99, 235);"></path><path d="M1369.1538461538462 270.9 L8322.307692307691 903" data-idx="115" style="fill: none; stroke: rgb(37, 99, 235);"></path><path d="M1382.576923076923 270.9 L8523.653846153848 903" data-idx="116" style="fill: none; stroke: rgb(37, 99, 235);"></path><path d="M1396 270.9 L8725 903" data-idx="117" style="fill: none; stroke: rgb(37, 99, 235);"></path><path d="M1409.423076923077 270.9 L8926.346153846152 903" data-idx="118" style="fill: none; stroke: rgb(37, 99, 235);"></path><path d="M1422.8461538461538 270.9 L9127.692307692309 903" data-idx="119" style="fill: none; stroke: rgb(37, 99, 235);"></path><path d="M1436.2692307692307 270.9 L9329.038461538461 903" data-idx="120" style="fill: none; stroke: rgb(37, 99, 235);"></path><path d="M1449.6923076923076 270.9 L9530.384615384617 903" data-idx="121" style="fill: none; stroke: rgb(37, 99, 235);"></path><path d="M1463.1153846153845 270.9 L9731.73076923077 903" data-idx="122" style="fill: none; stroke: rgb(37, 99, 235);"></path><path d="M1476.5384615384614 270.9 L9933.076923076922 903" data-idx="123" style="fill: none; stroke: rgb(37, 99, 235);"></path><path d="M1489.9615384615386 270.9 L10134.423076923078 903" data-idx="124" style="fill: none; stroke: rgb(37, 99, 235);"></path><path d="M1503.3846153846155 270.9 L10335.76923076923 903" data-idx="125" style="fill: none; stroke: rgb(37, 99, 235);"></path><path d="M1516.8076923076924 270.9 L10537.115384615383 903" data-idx="126" style="fill: none; stroke: rgb(37, 99, 235);"></path><path d="M1530.2307692307693 270.9 L10738.461538461539 903" data-idx="127" style="fill: none; stroke: rgb(37, 99, 235);"></path><path d="M1543.6538461538462 270.9 L10939.807692307691 903" data-idx="128" style="fill: none; stroke: rgb(37, 99, 235);"></path><path d="M1557.076923076923 270.9 L11141.153846153848 903" data-idx="129" style="fill: none; stroke: rgb(37, 99, 235);"></path><path d="M1570.5 270.9 L11342.5 903" data-idx="130" style="fill: none; stroke: rgb(37, 99, 235);"></path><path d="M1583.923076923077 270.9 L11543.846153846152 903" data-idx="131" style="fill: none; stroke: rgb(37, 99, 235);"></path><path d="M1597.3461538461538 270.9 L11745.192307692309 903" data-idx="132" style="fill: none; stroke: rgb(37, 99, 235);"></path><path d="M1610.7692307692307 270.9 L11946.538461538461 903" data-idx="133" style="fill: none; stroke: rgb(37, 99, 235);"></path><path d="M1624.1923076923076 270.9 L12147.884615384617 903" data-idx="134" style="fill: none; stroke: rgb(37, 99, 235);"></path><path d="M1637.6153846153845 270.9 L12349.23076923077 903" data-idx="135" style="fill: none; stroke: rgb(37, 99, 235);"></path><path d="M1651.0384615384614 270.9 L12550.576923076922 903" data-idx="136" style="fill: none; stroke: rgb(37, 99, 235);"></path><path d="M1664.4615384615386 270.9 L12751.923076923078 903" data-idx="137" style="fill: none; stroke: rgb(37, 99, 235);"></path><path d="M1677.8846153846155 270.9 L12953.26923076923 903" data-idx="138" style="fill: none; stroke: rgb(37, 99, 235);"></path><path d="M1691.3076923076924 270.9 L13154.615384615383 903" data-idx="139" style="fill: none; stroke: rgb(37, 99, 235);"></path><path d="M1704.7307692307693 270.9 L13355.961538461539 903" data-idx="140" style="fill: none; stroke: rgb(37, 99, 235);"></path><path d="M1718.1538461538462 270.9 L13557.307692307691 903" data-idx="141" style="fill: none; stroke: rgb(37, 99, 235);"></path><path d="M1731.576923076923 270.9 L13758.653846153848 903" data-idx="142" style="fill: none; stroke: rgb(37, 99, 235);"></path><path d="M1745 270.9 L13960 903" data-idx="143" style="fill: none; stroke: rgb(37, 99, 235);"></path><g data-idx="144" transform="matrix(1,0,0,1,0,3.4032440185546875)">
<path d="M0 270.9 L1745 270.9" data-idx="145" style="fill: none; stroke: rgb(37, 99, 235);"></path>


</g><g data-idx="147" transform="matrix(1,0,0,1,0,6.806487560272217)">
<path d="M0 275.68750295857984 L1745 275.68750295857984" data-idx="148" style="fill: none; stroke: rgb(37, 99, 235);"></path>


</g><g data-idx="150" transform="matrix(1,0,0,1,0,10.209731101989746)">
<path d="M0 285.2625088757396 L1745 285.2625088757396" data-idx="151" style="fill: none; stroke: rgb(37, 99, 235);"></path>


</g><g data-idx="153" transform="matrix(1,0,0,1,0,13.612975120544434)">
<path d="M0 299.6250177514793 L1745 299.6250177514793" data-idx="154" style="fill: none; stroke: rgb(37, 99, 235);"></path>


</g><g data-idx="156" transform="matrix(1,0,0,1,0,17.016220092773438)">
<path d="M0 318.7750295857988 L1745 318.7750295857988" data-idx="157" style="fill: none; stroke: rgb(37, 99, 235);"></path>


</g><g data-idx="159" transform="matrix(1,0,0,1,0,20.419462203979492)">
<path d="M0 342.7125443786982 L1745 342.7125443786982" data-idx="160" style="fill: none; stroke: rgb(37, 99, 235);"></path>


</g><g data-idx="162" transform="matrix(1,0,0,1,0,23.82270622253418)">
<path d="M0 371.4375621301775 L1745 371.4375621301775" data-idx="163" style="fill: none; stroke: rgb(37, 99, 235);"></path>


</g><g data-idx="165" transform="matrix(1,0,0,1,0,27.225950241088867)">
<path d="M0 404.9500828402367 L1745 404.9500828402367" data-idx="166" style="fill: none; stroke: rgb(37, 99, 235);"></path>


</g><g data-idx="168" transform="matrix(1,0,0,1,0,30.629196166992188)">
<path d="M0 443.2501065088757 L1745 443.2501065088757" data-idx="169" style="fill: none; stroke: rgb(37, 99, 235);"></path>


</g><g data-idx="171" transform="matrix(1,0,0,1,0,34.032440185546875)">
<path d="M0 486.33763313609467 L1745 486.33763313609467" data-idx="172" style="fill: none; stroke: rgb(37, 99, 235);"></path>


</g><g data-idx="174" transform="matrix(1,0,0,1,0,37.43568420410156)">
<path d="M0 534.2126627218935 L1745 534.2126627218935" data-idx="175" style="fill: none; stroke: rgb(37, 99, 235);"></path>


</g><g data-idx="177" transform="matrix(1,0,0,1,0,40.838924407958984)">
<path d="M0 586.8751952662722 L1745 586.8751952662722" data-idx="178" style="fill: none; stroke: rgb(37, 99, 235);"></path>


</g><g data-idx="180" transform="matrix(1,0,0,1,0,44.24216842651367)">
<path d="M0 644.3252307692308 L1745 644.3252307692308" data-idx="181" style="fill: none; stroke: rgb(37, 99, 235);"></path>


</g><g data-idx="183" transform="matrix(1,0,0,1,0,47.64541244506836)">
<path d="M0 706.5627692307692 L1745 706.5627692307692" data-idx="184" style="fill: none; stroke: rgb(37, 99, 235);"></path>


</g><g data-idx="186" transform="matrix(1,0,0,1,0,51.04866027832031)">
<path d="M0 773.5878106508875 L1745 773.5878106508875" data-idx="187" style="fill: none; stroke: rgb(37, 99, 235);"></path>


</g><g data-idx="189" transform="matrix(1,0,0,1,0,54.451900482177734)">
<path d="M0 845.4003550295857 L1745 845.4003550295857" data-idx="190" style="fill: none; stroke: rgb(37, 99, 235);"></path>


</g><g data-idx="192" transform="matrix(1,0,0,1,0,57.85514450073242)">
<path d="M0 922.0004023668638 L1745 922.0004023668638" data-idx="193" style="fill: none; stroke: rgb(37, 99, 235);"></path>


</g><rect fill="url(#fg-lg-0.6590519274487807)" height="903" width="1745" y="0" x="0" data-idx="195"></rect><g data-idx="196"></g></g><text data-watermark="true" text-anchor="middle" dominant-baseline="middle" stroke-opacity="0.1" fill="black" fill-opacity="0.1" stroke="white" stroke-width="1" font-size="15.0" x="872.5" y="451.5" data-idx="197" style="opacity: 1; font-size: 15px;">LOADING.IO</text></svg>