<svg width="103" height="54" viewBox="0 0 103 54" fill="none" xmlns="http://www.w3.org/2000/svg">
<path d="M30.0821 33.0381L37.51 46.668H22.5056L14.9992 33.0381H30.0821Z" fill="url(#paint0_linear_8_7)"/>
<path d="M37.506 46.6699L45 33.0402L29.9995 5.77419H14.9992L37.506 46.6699Z" fill="#FF414C"/>
<path d="M7.50014 19.4001H22.5006L7.50638 46.6661L0 33.0364L7.50014 19.4001Z" fill="#FF414C"/>
<path d="M58.04 40.18C57.12 40.18 56.3333 39.98 55.68 39.58C55.0267 39.1667 54.5267 38.5533 54.18 37.74C53.8467 36.9133 53.68 35.86 53.68 34.58C53.68 33.2867 53.84 32.2333 54.16 31.42C54.48 30.5933 54.96 29.98 55.6 29.58C56.2533 29.18 57.0667 28.98 58.04 28.98C59.0267 28.98 59.92 29.2133 60.72 29.68C61.5333 30.1333 62.1733 30.78 62.64 31.62C63.12 32.4467 63.36 33.4333 63.36 34.58C63.36 35.7267 63.12 36.72 62.64 37.56C62.1733 38.4 61.5333 39.0467 60.72 39.5C59.92 39.9533 59.0267 40.18 58.04 40.18ZM51.22 43.88V29.16H54.84V31L54.82 34.58L55.02 38.18V43.88H51.22ZM57.24 37.16C57.6667 37.16 58.0467 37.06 58.38 36.86C58.7267 36.66 59 36.3667 59.2 35.98C59.4133 35.5933 59.52 35.1267 59.52 34.58C59.52 34.0333 59.4133 33.5667 59.2 33.18C59 32.7933 58.7267 32.5 58.38 32.3C58.0467 32.1 57.6667 32 57.24 32C56.8133 32 56.4267 32.1 56.08 32.3C55.7467 32.5 55.4733 32.7933 55.26 33.18C55.06 33.5667 54.96 34.0333 54.96 34.58C54.96 35.1267 55.06 35.5933 55.26 35.98C55.4733 36.3667 55.7467 36.66 56.08 36.86C56.4267 37.06 56.8133 37.16 57.24 37.16ZM71.5119 40V37.98L71.2519 37.48V33.76C71.2519 33.16 71.0652 32.7 70.6919 32.38C70.3319 32.0467 69.7519 31.88 68.9519 31.88C68.4319 31.88 67.9052 31.9667 67.3719 32.14C66.8385 32.3 66.3852 32.5267 66.0119 32.82L64.7319 30.24C65.3452 29.84 66.0785 29.5333 66.9319 29.32C67.7985 29.0933 68.6585 28.98 69.5119 28.98C71.2719 28.98 72.6319 29.3867 73.5919 30.2C74.5652 31 75.0519 32.26 75.0519 33.98V40H71.5119ZM68.3119 40.18C67.4452 40.18 66.7119 40.0333 66.1119 39.74C65.5119 39.4467 65.0519 39.0467 64.7319 38.54C64.4252 38.0333 64.2719 37.4667 64.2719 36.84C64.2719 36.1733 64.4385 35.6 64.7719 35.12C65.1185 34.6267 65.6452 34.2533 66.3519 34C67.0585 33.7333 67.9719 33.6 69.0919 33.6H71.6519V35.58H69.6119C68.9985 35.58 68.5652 35.68 68.3119 35.88C68.0719 36.08 67.9519 36.3467 67.9519 36.68C67.9519 37.0133 68.0785 37.28 68.3319 37.48C68.5852 37.68 68.9319 37.78 69.3719 37.78C69.7852 37.78 70.1585 37.68 70.4919 37.48C70.8385 37.2667 71.0919 36.9467 71.2519 36.52L71.7719 37.92C71.5719 38.6667 71.1785 39.2333 70.5919 39.62C70.0185 39.9933 69.2585 40.18 68.3119 40.18ZM79.1152 44.06C78.5418 44.06 77.9618 43.9667 77.3752 43.78C76.8018 43.6067 76.3352 43.3733 75.9752 43.08L77.2952 40.42C77.5218 40.62 77.7818 40.7733 78.0752 40.88C78.3818 41 78.6818 41.06 78.9752 41.06C79.3885 41.06 79.7152 40.9667 79.9552 40.78C80.1952 40.5933 80.4018 40.3 80.5752 39.9L81.0752 38.64L81.3752 38.26L85.0552 29.16H88.6752L83.9952 40.44C83.6218 41.3733 83.1885 42.1 82.6952 42.62C82.2152 43.1533 81.6752 43.5267 81.0752 43.74C80.4885 43.9533 79.8352 44.06 79.1152 44.06ZM80.5952 40.46L75.8152 29.16H79.7152L83.2352 37.92L80.5952 40.46Z" fill="#D9D9D9"/>
<path d="M58.04 40.18C57.12 40.18 56.3333 39.98 55.68 39.58C55.0267 39.1667 54.5267 38.5533 54.18 37.74C53.8467 36.9133 53.68 35.86 53.68 34.58C53.68 33.2867 53.84 32.2333 54.16 31.42C54.48 30.5933 54.96 29.98 55.6 29.58C56.2533 29.18 57.0667 28.98 58.04 28.98C59.0267 28.98 59.92 29.2133 60.72 29.68C61.5333 30.1333 62.1733 30.78 62.64 31.62C63.12 32.4467 63.36 33.4333 63.36 34.58C63.36 35.7267 63.12 36.72 62.64 37.56C62.1733 38.4 61.5333 39.0467 60.72 39.5C59.92 39.9533 59.0267 40.18 58.04 40.18ZM51.22 43.88V29.16H54.84V31L54.82 34.58L55.02 38.18V43.88H51.22ZM57.24 37.16C57.6667 37.16 58.0467 37.06 58.38 36.86C58.7267 36.66 59 36.3667 59.2 35.98C59.4133 35.5933 59.52 35.1267 59.52 34.58C59.52 34.0333 59.4133 33.5667 59.2 33.18C59 32.7933 58.7267 32.5 58.38 32.3C58.0467 32.1 57.6667 32 57.24 32C56.8133 32 56.4267 32.1 56.08 32.3C55.7467 32.5 55.4733 32.7933 55.26 33.18C55.06 33.5667 54.96 34.0333 54.96 34.58C54.96 35.1267 55.06 35.5933 55.26 35.98C55.4733 36.3667 55.7467 36.66 56.08 36.86C56.4267 37.06 56.8133 37.16 57.24 37.16ZM71.5119 40V37.98L71.2519 37.48V33.76C71.2519 33.16 71.0652 32.7 70.6919 32.38C70.3319 32.0467 69.7519 31.88 68.9519 31.88C68.4319 31.88 67.9052 31.9667 67.3719 32.14C66.8385 32.3 66.3852 32.5267 66.0119 32.82L64.7319 30.24C65.3452 29.84 66.0785 29.5333 66.9319 29.32C67.7985 29.0933 68.6585 28.98 69.5119 28.98C71.2719 28.98 72.6319 29.3867 73.5919 30.2C74.5652 31 75.0519 32.26 75.0519 33.98V40H71.5119ZM68.3119 40.18C67.4452 40.18 66.7119 40.0333 66.1119 39.74C65.5119 39.4467 65.0519 39.0467 64.7319 38.54C64.4252 38.0333 64.2719 37.4667 64.2719 36.84C64.2719 36.1733 64.4385 35.6 64.7719 35.12C65.1185 34.6267 65.6452 34.2533 66.3519 34C67.0585 33.7333 67.9719 33.6 69.0919 33.6H71.6519V35.58H69.6119C68.9985 35.58 68.5652 35.68 68.3119 35.88C68.0719 36.08 67.9519 36.3467 67.9519 36.68C67.9519 37.0133 68.0785 37.28 68.3319 37.48C68.5852 37.68 68.9319 37.78 69.3719 37.78C69.7852 37.78 70.1585 37.68 70.4919 37.48C70.8385 37.2667 71.0919 36.9467 71.2519 36.52L71.7719 37.92C71.5719 38.6667 71.1785 39.2333 70.5919 39.62C70.0185 39.9933 69.2585 40.18 68.3119 40.18ZM79.1152 44.06C78.5418 44.06 77.9618 43.9667 77.3752 43.78C76.8018 43.6067 76.3352 43.3733 75.9752 43.08L77.2952 40.42C77.5218 40.62 77.7818 40.7733 78.0752 40.88C78.3818 41 78.6818 41.06 78.9752 41.06C79.3885 41.06 79.7152 40.9667 79.9552 40.78C80.1952 40.5933 80.4018 40.3 80.5752 39.9L81.0752 38.64L81.3752 38.26L85.0552 29.16H88.6752L83.9952 40.44C83.6218 41.3733 83.1885 42.1 82.6952 42.62C82.2152 43.1533 81.6752 43.5267 81.0752 43.74C80.4885 43.9533 79.8352 44.06 79.1152 44.06ZM80.5952 40.46L75.8152 29.16H79.7152L83.2352 37.92L80.5952 40.46Z" fill="url(#paint1_linear_8_7)" fill-opacity="0.76"/>
<path d="M54.2 21.26C53.16 21.26 52.3333 20.98 51.72 20.42C51.12 19.8467 50.82 19.1 50.82 18.18C50.82 17.2733 51.1333 16.5533 51.76 16.02C52.4 15.4733 53.3067 15.1533 54.48 15.06L57.44 14.82V14.6C57.44 14.1467 57.3533 13.7867 57.18 13.52C57.02 13.24 56.7867 13.04 56.48 12.92C56.1733 12.7867 55.8133 12.72 55.4 12.72C54.68 12.72 54.1267 12.8667 53.74 13.16C53.3533 13.44 53.16 13.84 53.16 14.36H51.08C51.08 13.64 51.26 13.02 51.62 12.5C51.9933 11.9667 52.5133 11.5533 53.18 11.26C53.86 10.9667 54.64 10.82 55.52 10.82C56.4133 10.82 57.18 10.98 57.82 11.3C58.46 11.6067 58.9533 12.0733 59.3 12.7C59.6467 13.3133 59.82 14.08 59.82 15V21H57.68L57.5 19.54C57.2867 20.0467 56.8733 20.46 56.26 20.78C55.66 21.1 54.9733 21.26 54.2 21.26ZM54.98 19.42C55.74 19.42 56.34 19.2067 56.78 18.78C57.2333 18.3533 57.46 17.76 57.46 17V16.48L55.4 16.64C54.64 16.7067 54.1 16.8667 53.78 17.12C53.46 17.36 53.3 17.68 53.3 18.08C53.3 18.52 53.4467 18.8533 53.74 19.08C54.0333 19.3067 54.4467 19.42 54.98 19.42ZM64.677 21H62.257V6.12H64.677V15.26L68.517 11.12H71.577L67.817 15.04L71.497 21H68.697L66.117 16.84L64.677 18.34V21ZM75.6258 21.26C74.5858 21.26 73.7591 20.98 73.1458 20.42C72.5458 19.8467 72.2458 19.1 72.2458 18.18C72.2458 17.2733 72.5591 16.5533 73.1858 16.02C73.8258 15.4733 74.7324 15.1533 75.9058 15.06L78.8658 14.82V14.6C78.8658 14.1467 78.7791 13.7867 78.6058 13.52C78.4458 13.24 78.2124 13.04 77.9058 12.92C77.5991 12.7867 77.2391 12.72 76.8258 12.72C76.1058 12.72 75.5524 12.8667 75.1658 13.16C74.7791 13.44 74.5858 13.84 74.5858 14.36H72.5058C72.5058 13.64 72.6858 13.02 73.0458 12.5C73.4191 11.9667 73.9391 11.5533 74.6058 11.26C75.2858 10.9667 76.0658 10.82 76.9458 10.82C77.8391 10.82 78.6058 10.98 79.2458 11.3C79.8858 11.6067 80.3791 12.0733 80.7258 12.7C81.0724 13.3133 81.2458 14.08 81.2458 15V21H79.1058L78.9258 19.54C78.7124 20.0467 78.2991 20.46 77.6858 20.78C77.0858 21.1 76.3991 21.26 75.6258 21.26ZM76.4058 19.42C77.1658 19.42 77.7658 19.2067 78.2058 18.78C78.6591 18.3533 78.8858 17.76 78.8858 17V16.48L76.8258 16.64C76.0658 16.7067 75.5258 16.8667 75.2058 17.12C74.8858 17.36 74.7258 17.68 74.7258 18.08C74.7258 18.52 74.8724 18.8533 75.1658 19.08C75.4591 19.3067 75.8724 19.42 76.4058 19.42ZM82.8828 18H85.2028C85.2161 18.4267 85.3761 18.7667 85.6828 19.02C85.9895 19.2733 86.4161 19.4 86.9628 19.4C87.5495 19.4 87.9895 19.2933 88.2828 19.08C88.5895 18.8667 88.7428 18.58 88.7428 18.22C88.7428 17.98 88.6628 17.7667 88.5028 17.58C88.3428 17.3933 88.0428 17.2533 87.6028 17.16L85.8228 16.74C84.9295 16.54 84.2628 16.22 83.8228 15.78C83.3961 15.3267 83.1828 14.7067 83.1828 13.92C83.1828 13.28 83.3495 12.7267 83.6828 12.26C84.0295 11.7933 84.4961 11.44 85.0828 11.2C85.6695 10.9467 86.3428 10.82 87.1028 10.82C87.8361 10.82 88.4828 10.9533 89.0428 11.22C89.6028 11.4867 90.0361 11.86 90.3428 12.34C90.6628 12.82 90.8295 13.38 90.8428 14.02H88.5228C88.5228 13.5933 88.3895 13.26 88.1228 13.02C87.8561 12.7667 87.4828 12.64 87.0028 12.64C86.5228 12.64 86.1495 12.7467 85.8828 12.96C85.6161 13.1733 85.4828 13.46 85.4828 13.82C85.4828 14.3667 85.9095 14.74 86.7628 14.94L88.5428 15.36C89.3695 15.5467 89.9895 15.8467 90.4028 16.26C90.8295 16.6733 91.0428 17.26 91.0428 18.02C91.0428 18.6867 90.8695 19.2667 90.5228 19.76C90.1761 20.24 89.6895 20.6133 89.0628 20.88C88.4361 21.1333 87.7161 21.26 86.9028 21.26C85.6761 21.26 84.6961 20.96 83.9628 20.36C83.2428 19.76 82.8828 18.9733 82.8828 18ZM95.3406 21H92.9006V6.12H95.3606V12.4C95.6673 11.92 96.094 11.54 96.6406 11.26C97.2006 10.9667 97.8406 10.82 98.5606 10.82C99.774 10.82 100.694 11.1867 101.321 11.92C101.961 12.6533 102.281 13.6533 102.281 14.92V21H99.8406V15.5C99.8406 14.94 99.754 14.48 99.5806 14.12C99.4073 13.76 99.1673 13.4933 98.8606 13.32C98.554 13.1333 98.194 13.04 97.7806 13.04C97.274 13.04 96.834 13.1533 96.4606 13.38C96.1006 13.5933 95.8206 13.8933 95.6206 14.28C95.434 14.6667 95.3406 15.1067 95.3406 15.6V21Z" fill="#EDEDED"/>
<defs>
<linearGradient id="paint0_linear_8_7" x1="28.5821" y1="42.4621" x2="34.379" y2="35.8179" gradientUnits="userSpaceOnUse">
<stop stop-color="#FF414C"/>
<stop offset="1" stop-color="#FF414C" stop-opacity="0"/>
</linearGradient>
<linearGradient id="paint1_linear_8_7" x1="111" y1="37" x2="64.7303" y2="30.8074" gradientUnits="userSpaceOnUse">
<stop offset="0.192916" stop-color="#FF0473"/>
<stop offset="1" stop-color="#FC411C"/>
</linearGradient>
</defs>
</svg>
