<svg width="125" height="121" viewBox="0 0 125 121" fill="none" xmlns="http://www.w3.org/2000/svg">
<g clip-path="url(#clip0_15_2)">
<path d="M0 0C41.25 0 82.5 0 125 0C125 39.93 125 79.86 125 121C83.75 121 42.5 121 0 121C0 81.07 0 41.14 0 0Z" fill="#2563EB"/>
<path d="M0 0C41.25 0 82.5 0 125 0C125 39.93 125 79.86 125 121C83.75 121 42.5 121 0 121C0 81.07 0 41.14 0 0ZM21.0674 6.99422C20.6992 7.68896 20.331 8.3837 19.9516 9.09949C18.5756 11.6952 17.1985 14.2904 15.8211 16.8853C15.2269 18.0051 14.633 19.1251 14.0395 20.2452C13.1825 21.862 12.3246 23.4783 11.4664 25.0945C11.2044 25.5894 10.9424 26.0843 10.6725 26.5942C9.4506 28.893 8.20207 31.1554 6.85891 33.3863C5.22296 36.3976 5.13162 38.6129 5.17907 41.9653C5.18445 42.5225 5.18982 43.0796 5.19536 43.6536C5.33413 47.2797 5.76567 49.8061 8.42971 52.4594C10.3135 53.4873 10.3135 53.4873 14.7472 53.8555C14.7472 69.5505 14.7472 85.2456 14.7472 101.416C11.9663 101.416 9.18539 101.416 6.32022 101.416C6.08848 101.647 5.85674 101.878 5.61798 102.116C5.61798 105.347 5.61798 108.578 5.61798 111.908C42.2331 111.908 78.8483 111.908 116.573 111.908C116.573 108.676 116.573 105.445 116.573 102.116C116.341 101.885 116.11 101.654 115.871 101.416C113.09 101.416 110.309 101.416 107.444 101.416C107.444 85.7212 107.444 70.0261 107.444 53.8555C108.603 53.8555 109.761 53.8555 110.955 53.8555C113.318 52.148 114.952 50.6819 116.573 48.2601C117.843 38.71 115.65 32.2137 110.823 24.0863C110.275 23.1201 109.73 22.1525 109.187 21.1835C108.154 19.3483 107.107 17.522 106.044 15.7039C104.363 12.8227 102.735 9.91423 101.124 6.99422C99.9649 6.99422 98.8062 6.99422 97.6124 6.99422C98.6806 9.80135 99.9739 12.4327 101.36 15.0977C101.697 15.7482 101.697 15.7482 102.042 16.4118C102.517 17.3256 102.993 18.2391 103.469 19.1521C104.191 20.5354 104.909 21.9201 105.628 23.305C107.798 27.4764 110.018 31.5889 112.36 35.6705C78.5253 35.6705 44.691 35.6705 9.83146 35.6705C22.4719 11.8902 22.4719 11.8902 24.5787 8.39306C24.5787 7.93145 24.5787 7.46983 24.5787 6.99422C23.4199 6.99422 22.2612 6.99422 21.0674 6.99422Z" fill="#FCFCFC"/>
<path d="M20.7893 7C21.9512 7 24.303 6.5 25.5 6.5C24.3355 10.6802 22.0169 14.2703 19.8969 18.0324C16.7373 23.6868 13.0977 29.8113 10 35.5C43.9257 35.5 77.3744 35.5481 112.328 35.5481C105.177 21.8352 105.177 21.8352 97.5411 8.39259C97.5411 7.93303 97.5411 7.47348 97.5411 7C98.703 7 99.803 7 101 7C101.369 7.69163 101.844 8.39259 102.181 9.09586C103.56 11.68 105.119 14.4166 106.5 17C107.096 18.1148 107.514 19.0766 108.109 20.1917C108.968 21.8014 109.828 23.4104 110.689 25.0194C110.952 25.5121 111.214 26.0048 111.485 26.5124C112.71 28.8009 113.962 31.0525 115.31 33.2726C116.962 36.2975 116.997 38.4989 116.949 41.8583C116.966 42.3991 116.983 42.9399 117 43.4971C116.993 46.354 116.745 48.2129 114.9 50.4723C111.61 53.6201 111.5 53.5 109.027 53.7389C108.49 53.7102 107.953 53.6814 107.399 53.6519C107.406 54.4669 107.406 54.4669 107.413 55.2985C107.456 60.421 107.488 65.5434 107.509 70.6661C107.52 73.2996 107.535 75.9331 107.559 78.5666C107.581 81.1083 107.594 83.65 107.6 86.1919C107.603 87.1613 107.611 88.1307 107.622 89.1001C107.638 90.4585 107.639 91.817 107.639 93.1755C107.646 94.3352 107.646 94.3352 107.653 95.5182C107.399 97.5185 107.399 97.5185 105.287 100.304C105.287 84.9086 105.287 69.5135 105.287 53.6519C103.66 53.4221 102.034 53.1923 100.358 52.9556C98.6413 51.8676 98.6413 51.8676 97.5411 50.8667C95.7852 51.7049 94.2447 52.5756 92.6121 53.6519C87.207 54.273 82.9437 54.1153 78.5292 50.8667C77.7668 51.556 77.7668 51.556 76.9889 52.2593C73.5547 54.534 69.0907 54.3151 65.1505 53.6519C63.1068 52.2375 63.1068 52.2375 61.6297 50.8667C59.8739 51.7049 58.3333 52.5756 56.7007 53.6519C54.4618 53.8858 54.4618 53.8858 51.8597 53.913C51.0047 53.9327 50.1497 53.9525 49.2687 53.9728C46.4693 53.6025 45.3301 52.7769 43.322 50.8667C42.9153 51.0677 42.5087 51.2688 42.0897 51.4759C41.5669 51.7344 41.0441 51.9929 40.5054 52.2593C40.0924 52.4998 39.6794 52.7404 39.2539 52.9882C35.7687 54.4661 31.1107 54.3625 27.5915 53.0263C26.2465 52.2593 26.2465 52.2593 24.3101 50.8667C23.3733 51.556 23.3733 51.556 22.4177 52.2593C20.0165 53.6929 19.2389 53.796 16.5645 53.6519C16.5692 54.2142 16.5739 54.7766 16.5787 55.356C16.621 60.6529 16.6532 65.9498 16.6739 71.2468C16.685 73.9702 16.6999 76.6934 16.7238 79.4167C16.7468 82.0443 16.7594 84.6717 16.7649 87.2994C16.7688 88.3024 16.7764 89.3054 16.7878 90.3084C16.8031 91.712 16.804 93.1157 16.8043 94.5193C16.809 95.3187 16.8137 96.1181 16.8185 96.9417C16.5645 98.9111 16.5645 98.9111 14.452 101C14.452 85.3751 14.452 69.7502 14.452 53.6519C12.8255 53.4221 11.1989 53.1923 9.52302 52.9556C7.22922 51.8237 6.3499 50.3643 5.29816 48.0815C3.5 39 6.24292 32.0748 11.0633 24.0157C11.6127 23.0538 12.1596 22.0905 12.7041 21.1258C13.7403 19.2989 14.7896 17.4807 15.8559 15.6707C17.5414 12.8024 19.1733 9.90696 20.7893 7Z" fill="#2563EB"/>
<path d="M29.4944 65.0463C35.9831 65.0463 42.4719 65.0463 49.1573 65.0463C49.1573 77.0483 49.1573 89.0504 49.1573 101.416C42.6685 101.416 36.1798 101.416 29.4944 101.416C29.4944 89.4141 29.4944 77.412 29.4944 65.0463Z" fill="#F7F7F7"/>
<path d="M8.427 104.214C43.1882 104.214 77.9495 104.214 113.764 104.214C113.764 106.291 113.764 108.368 113.764 110.509C79.0028 110.509 44.2416 110.509 8.427 110.509C8.427 108.431 8.427 106.354 8.427 104.214Z" fill="#EFEFEF"/>
<path d="M98.3147 38.4682C103.413 38.4682 108.511 38.4682 113.764 38.4682C114.109 46.2777 114.109 46.2777 112.447 49.0907C109.793 51.3459 107.674 51.3287 104.273 51.3092C102.528 51.0578 102.528 51.0578 100.378 49.3967C97.2854 45.2243 98.3147 45.4165 98.3147 38.4682Z" fill="#EFEFEF"/>
<path d="M44.2415 38.4682C49.3399 38.4682 54.4382 38.4682 59.691 38.4682C60.0356 46.2777 60.0356 46.2777 58.3743 49.0907C55.7195 51.3459 53.6005 51.3287 50.1997 51.3092C48.455 51.0578 48.455 51.0578 46.3044 49.3967C43.2123 45.2243 44.2415 45.4165 44.2415 38.4682Z" fill="#EFEFEF"/>
<path d="M62.5001 38.4682C67.5984 38.4682 72.6967 38.4682 77.9495 38.4682C77.9495 47.3359 77.9495 47.3359 75.8427 49.659C72.8834 51.4249 70.0845 51.5605 66.7135 51.0578C64.6979 49.8031 63.5595 48.9717 62.5001 46.8613C62.4027 44.0614 62.4701 41.2704 62.5001 38.4682Z" fill="#EFEFEF"/>
<path d="M8.42693 38.4682C13.5252 38.4682 18.6236 38.4682 23.8764 38.4682C23.8764 47.3359 23.8764 47.3359 21.7696 49.659C18.8103 51.4249 16.0114 51.5605 12.6404 51.0578C10.6248 49.8031 9.4864 48.9717 8.42693 46.8613C8.32959 44.0614 8.397 41.2704 8.42693 38.4682Z" fill="#EFEFEF"/>
<path d="M80.7584 38.4682C85.625 38.4682 90.4916 38.4682 95.5056 38.4682C95.8503 46.2777 95.8503 46.2777 94.1889 49.0907C91.6553 51.243 89.7989 51.2887 86.5602 51.2627C84.2316 50.9623 83.0408 49.9323 81.4607 48.2601C80.0358 45.4218 80.7255 41.5448 80.7584 38.4682Z" fill="#F5F5F5"/>
<path d="M26.6854 38.4682C31.552 38.4682 36.4186 38.4682 41.4326 38.4682C41.7773 46.2777 41.7773 46.2777 40.1159 49.0907C37.5823 51.243 35.7259 51.2887 32.4872 51.2627C30.1586 50.9623 28.9678 49.9323 27.3877 48.2601C25.9628 45.4218 26.6525 41.5448 26.6854 38.4682Z" fill="#F5F5F5"/>
<path d="M14.7472 54.5549C15.4424 54.7857 16.1376 55.0166 16.8539 55.2544C16.9027 60.9633 16.9402 66.6721 16.9631 72.3812C16.9741 75.0321 16.989 77.6828 17.0129 80.3337C17.0357 82.8914 17.0483 85.449 17.0538 88.0068C17.0577 88.9831 17.0653 89.9594 17.0767 90.9357C17.0919 92.302 17.0929 93.6684 17.0931 95.0348C17.0978 95.813 17.1025 96.5911 17.1073 97.3928C16.8539 99.3179 16.8539 99.3179 14.7472 101.416C14.7472 85.952 14.7472 70.4878 14.7472 54.5549Z" fill="#2563EB"/>
<path d="M105.337 54.5549C106.032 54.7857 106.727 55.0166 107.444 55.2544C107.493 60.7688 107.53 66.2832 107.553 71.7978C107.564 74.3585 107.579 76.9191 107.603 79.4797C107.626 81.9513 107.638 84.4227 107.644 86.8944C107.649 88.2954 107.666 89.6963 107.682 91.0972C107.683 91.9512 107.683 92.8051 107.683 93.685C107.688 94.4367 107.692 95.1884 107.697 95.9629C107.444 97.9191 107.444 97.9191 105.337 100.717C105.337 85.4834 105.337 70.25 105.337 54.5549Z" fill="#2563EB"/>
<path d="M21.0674 6.9942C22.2262 6.9942 23.3849 6.9942 24.5787 6.9942C23.4273 11.1531 21.3317 14.7125 19.224 18.4472C18.862 19.0955 18.4999 19.7437 18.1268 20.4116C17.2375 22.0026 16.345 23.5917 15.4495 25.1792C14.2908 25.1792 13.1321 25.1792 11.9382 25.1792C12.8779 22.7401 13.9459 20.4376 15.1697 18.1276C15.5137 17.4762 15.8576 16.8248 16.2121 16.1536C16.5687 15.4824 16.9254 14.8111 17.2929 14.1196C17.655 13.4348 18.0171 12.75 18.3901 12.0445C19.281 10.3603 20.1735 8.67686 21.0674 6.9942Z" fill="#2563EB"/>
<path d="M77.9495 39.1676C78.6447 39.3984 79.3399 39.6292 80.0562 39.867C80.0562 41.7135 80.0562 43.56 80.0562 45.4624C79.361 45.6932 78.6658 45.924 77.9495 46.1618C77.9495 43.8537 77.9495 41.5456 77.9495 39.1676Z" fill="#2563EB"/>
<g clip-path="url(#clip1_15_2)">
<path d="M59.5 79.9022C59.5012 90.7267 68.2785 99.5 79 99.5C89.7238 99.5 98.4012 90.8234 98.5 80.1979C98.4989 69.2726 89.8198 60.5975 79.0955 60.5C79.0955 60.5 79.0955 60.5 79.0955 60.5M59.5 79.9022L59 79.9C59.1 68.9 68 59.9 79.1 60L79.0955 60.5M59.5 79.9022C59.5988 69.1725 68.2792 60.4025 79.0955 60.5M59.5 79.9022L79.0955 60.5" fill="#2563EB" stroke="#F5F5F5"/>
<path fill-rule="evenodd" clip-rule="evenodd" d="M80.9 77.6L80.3 80.8L86 81.6L85.6 83.1L80 82.3C79.6 83.6 79.4 85 78.9 86.2C78.4 87.6 77.9 89 77.3 90.3C76.5 92 75.1 93.2 73.2 93.5C72.1 93.7 70.9 93.6 70 92.9C69.7 92.7 69.4 92.3 69.4 92C69.4 91.6 69.6 91.1 69.9 90.9C70.1 90.8 70.6 90.9 70.9 91C71.2 91.3 71.5 91.7 71.7 92.1C72.3 92.9 73.1 93 73.9 92.4C74.8 91.6 75.3 90.5 75.6 89.4C76.2 87 76.8 84.7 77.3 82.3V81.9L72 81.1L72.2 79.6L77.7 80.4L78.4 77.3L72.7 76.4L72.9 74.8L78.8 75.6C79 75 79.1 74.5 79.3 74C79.8 72.2 80.3 70.4 81.5 68.8C82.7 67.2 84.1 66.2 86.2 66.3C87.1 66.3 88 66.6 88.6 67.3C88.7 67.4 88.9 67.6 88.9 67.8C88.9 68.2 88.9 68.7 88.6 69C88.2 69.3 87.7 69.2 87.3 68.8C87 68.5 86.8 68.2 86.5 67.9C85.9 67.1 85 67 84.3 67.7C83.8 68.2 83.3 68.9 83 69.6C82.3 71.7 81.8 73.9 81.1 76.1L86.6 76.9L86.2 78.4L80.9 77.6Z" fill="white"/>
</g>
</g>
<defs>
<clipPath id="clip0_15_2">
<rect width="125" height="121" fill="white"/>
</clipPath>
<clipPath id="clip1_15_2">
<rect width="40" height="40" fill="white" transform="translate(59 60)"/>
</clipPath>
</defs>
</svg>
